<svg width="102" height="52" viewBox="0 0 102 52" fill="none" xmlns="http://www.w3.org/2000/svg">
<path d="M1.68798 50.9922C1.54732 50.9922 1.47698 50.8515 1.47698 50.5702C1.47698 50.2888 1.54732 50.1482 1.68798 50.1482C2.954 50.1482 3.89179 50.031 4.50136 49.7965C5.11092 49.5152 5.53293 49.0463 5.76738 48.3898C6.00182 47.6865 6.11905 46.6549 6.11905 45.2951V8.93225C6.11905 7.24423 5.95493 6.0251 5.62671 5.27487C5.29848 4.52464 4.71236 4.14952 3.86835 4.14952C3.16501 4.14952 2.08655 4.47775 0.632969 5.1342H0.4923C0.351631 5.1342 0.234408 5.01698 0.140628 4.78253C0.0468493 4.54808 0.0937389 4.40741 0.281297 4.36052L9.07309 0.0701261L9.42476 -0.000207289C9.56543 -0.000207289 9.7061 0.0701261 9.84677 0.210793C9.98744 0.304574 10.0578 0.421799 10.0578 0.562469V45.2951C10.0578 46.7018 10.175 47.7334 10.4094 48.3898C10.6439 49.0463 11.0659 49.5152 11.6755 49.7965C12.285 50.031 13.2228 50.1482 14.4888 50.1482C14.6295 50.1482 14.6998 50.2888 14.6998 50.5702C14.6998 50.8515 14.6295 50.9922 14.4888 50.9922C13.4104 50.9922 12.5429 50.9687 11.8865 50.9219L8.08841 50.8515L4.29035 50.9219C3.6339 50.9687 2.76644 50.9922 1.68798 50.9922ZM19.3419 50.9922C19.2481 50.9922 19.2012 50.8515 19.2012 50.5702C19.2012 50.2888 19.2481 50.1482 19.3419 50.1482C21.6864 50.1482 22.8586 49.7027 22.8586 48.8118C22.8586 48.3898 22.6476 47.874 22.2256 47.2645L13.2932 35.0966L16.5989 32.7053L25.7423 45.2951C28.0868 48.5305 30.783 50.1482 33.8308 50.1482C33.9714 50.1482 34.0418 50.2888 34.0418 50.5702C34.0418 50.8515 33.9714 50.9922 33.8308 50.9922C32.7523 50.9922 31.8849 50.9687 31.2284 50.9219L27.4304 50.8515L22.3663 50.9219C21.616 50.9687 20.6079 50.9922 19.3419 50.9922ZM8.51041 38.4023L19.4826 29.5402C20.983 28.368 21.7333 27.3364 21.7333 26.4455C21.7333 25.2733 20.3969 24.6871 17.7242 24.6871C17.5835 24.6871 17.5132 24.5465 17.5132 24.2651C17.5132 23.9838 17.5835 23.8431 17.7242 23.8431C18.9902 23.8431 19.9515 23.8666 20.6079 23.9135L25.7423 23.9838L30.4547 23.9135C31.0643 23.8666 31.9083 23.8431 32.9868 23.8431C33.1274 23.8431 33.1978 23.9838 33.1978 24.2651C33.1978 24.5465 33.1274 24.6871 32.9868 24.6871C31.2519 24.6871 29.3294 25.1092 27.2193 25.9532C25.1093 26.7972 22.9993 28.0632 20.8893 29.7512L8.79175 39.2464L8.51041 38.4023ZM58.8846 13.6447C58.8846 11.5815 58.322 9.96382 57.1966 8.79158C56.1182 7.61935 54.6411 7.03323 52.7656 7.03323C49.0613 7.03323 47.2091 9.28393 47.2091 13.7853C47.2091 18.3805 49.0378 23.1867 52.6952 28.2039C56.3995 33.1742 61.1119 37.8162 66.8324 42.1301C69.7396 44.3339 72.5295 46.1391 75.2022 47.5458C77.8749 48.9056 80.1491 49.7731 82.0246 50.1482C82.2122 50.1951 82.2825 50.3592 82.2356 50.6405C82.2356 50.875 82.1653 50.9922 82.0246 50.9922H74.4285C71.9434 50.9922 68.0281 48.7415 62.6827 44.2401C59.0253 41.3798 55.6024 38.1679 52.4139 34.6043C49.2254 31.0407 46.8106 27.6177 45.1694 24.3355C43.8096 21.3814 43.1297 18.8494 43.1297 16.7394C43.1297 14.7231 43.6221 12.871 44.6068 11.183C45.5914 9.44804 46.9747 8.08824 48.7565 7.10356C50.5383 6.07199 52.5545 5.5562 54.8052 5.5562C57.0559 5.5562 58.9784 6.09543 60.5727 7.17389C62.2138 8.25235 63.0344 10.0342 63.0344 12.5193C63.0344 14.348 62.5655 16.0126 61.6277 17.513C60.6899 18.9666 59.5645 20.2326 58.2516 21.3111C56.9387 22.3427 55.11 23.679 52.7656 25.3202C50.4211 26.8675 48.522 28.2273 47.0685 29.3995C45.6618 30.5718 44.4661 31.955 43.4814 33.5493C42.4967 35.1435 42.0044 36.9253 42.0044 38.8947C42.0044 40.864 42.4967 42.6927 43.4814 44.3808C44.513 46.0219 45.9197 47.3348 47.7015 48.3195C49.4833 49.2573 51.4995 49.7262 53.7502 49.7262C56.6574 49.7262 59.2598 48.929 61.5573 47.3348C63.8549 45.6937 65.6367 43.5367 66.9028 40.864C68.2157 38.1913 68.8721 35.3545 68.8721 32.3536C68.8721 30.6656 68.5204 29.3995 67.8171 28.5555C67.1606 27.7115 65.8477 27.2895 63.8784 27.2895C63.7377 27.2895 63.6439 27.1488 63.597 26.8675C63.597 26.5862 63.6908 26.4455 63.8784 26.4455L78.5783 26.3752C78.7658 26.3752 78.8596 26.5158 78.8596 26.7972C78.8596 27.0785 78.7658 27.2192 78.5783 27.2192C76.984 27.2192 75.7883 27.3833 74.9912 27.7115C74.1941 27.9929 73.6314 28.4149 73.3032 28.9775C72.975 29.4933 72.6467 30.2904 72.3185 31.3689C68.4736 45.0138 61.2291 51.8362 50.5852 51.8362C47.678 51.8362 45.2398 51.3439 43.2704 50.3592C41.3479 49.3745 39.8944 48.085 38.9097 46.4908C37.9719 44.8965 37.503 43.1851 37.503 41.3564C37.503 39.3401 37.9953 37.5114 38.98 35.8703C39.9647 34.2292 41.1838 32.7756 42.6374 31.5096C44.091 30.2436 46.0369 28.7431 48.4752 27.0082C50.7727 25.367 52.6014 23.9604 53.9612 22.7881C55.3679 21.569 56.5402 20.2092 57.478 18.7087C58.4157 17.1614 58.8846 15.4733 58.8846 13.6447ZM87.6701 28.1335C87.6701 29.7747 88.2093 31.0876 89.2878 32.0722C90.3662 33.01 91.9605 34.0182 94.0705 35.0966C95.7116 35.9406 96.9776 36.6674 97.8685 37.277C98.8063 37.8866 99.6035 38.6837 100.26 39.6684C100.916 40.653 101.245 41.8487 101.245 43.2554C101.245 45.6468 100.354 47.663 98.5719 49.3042C96.7901 50.9453 94.3753 51.7659 91.3274 51.7659C88.8423 51.7659 86.5916 51.0625 84.5754 49.6558C84.294 49.4683 84.1533 49.1869 84.1533 48.8118L84.0127 43.3257C84.0127 43.1851 84.1299 43.1147 84.3643 43.1147C84.6457 43.0679 84.8098 43.1147 84.8567 43.2554C85.7476 45.6468 86.8964 47.452 88.3031 48.6712C89.7566 49.8434 91.4212 50.4295 93.2968 50.4295C94.7504 50.4295 95.8757 50.1013 96.6729 49.4448C97.5169 48.7415 97.9389 47.7099 97.9389 46.3501C97.9389 45.0372 97.6341 43.9353 97.0245 43.0444C96.4619 42.1066 95.7585 41.3798 94.9145 40.864C94.0705 40.3014 92.9217 39.6449 91.4681 38.8947C89.9208 38.1444 88.6782 37.4645 87.7404 36.855C86.8495 36.2454 86.0758 35.4483 85.4194 34.4636C84.8098 33.4789 84.505 32.2598 84.505 30.8062C84.505 28.2742 85.4428 26.3517 87.3184 25.0388C89.2409 23.679 91.4916 22.9991 94.0705 22.9991C95.9461 22.9991 97.6575 23.3508 99.2049 24.0541C99.4862 24.1479 99.6503 24.2651 99.6972 24.4058C99.791 24.4996 99.8379 24.6403 99.8379 24.8278C99.8379 25.7656 99.8145 26.4924 99.7676 27.0082L99.6972 29.9622C99.6972 30.056 99.5566 30.1029 99.2752 30.1029C98.9939 30.1029 98.8532 30.056 98.8532 29.9622C98.8532 28.4618 98.0561 27.1488 96.4619 26.0235C94.9145 24.8981 93.2734 24.3355 91.5384 24.3355C90.3193 24.3355 89.3581 24.6637 88.6547 25.3202C87.9983 25.9297 87.6701 26.8675 87.6701 28.1335Z" fill="#221F1F"/>
</svg>
